<svg width="48" height="48" viewBox="0 0 48 48" fill="none" xmlns="http://www.w3.org/2000/svg">
<path fill-rule="evenodd" clip-rule="evenodd" d="M24.0988 2.5H23.9012C22.5716 2.49994 21.4258 2.49988 20.5084 2.62322C19.525 2.75542 18.5825 3.05354 17.818 3.81802C17.0535 4.58252 16.7554 5.52504 16.6232 6.50832C16.4999 7.4258 16.4999 8.57154 16.5 9.90126V14.7561C16.0308 14.5902 15.526 14.5 15 14.5H9C6.51472 14.5 4.5 16.5147 4.5 19V42.5H4C3.17158 42.5 2.5 43.1716 2.5 44C2.5 44.8284 3.17158 45.5 4 45.5H44C44.8284 45.5 45.5 44.8284 45.5 44C45.5 43.1716 44.8284 42.5 44 42.5H43.5V29C43.5 26.5148 41.4852 24.5 39 24.5H33C32.474 24.5 31.9692 24.5902 31.5 24.756V9.90128C31.5 8.57154 31.5002 7.42582 31.3768 6.50832C31.2446 5.52504 30.9464 4.58252 30.182 3.81804C29.4174 3.05354 28.475 2.75542 27.4916 2.62322C26.5742 2.49988 25.4284 2.49994 24.0988 2.5ZM40.5 42.5V29C40.5 28.1716 39.8284 27.5 39 27.5H33C32.1716 27.5 31.5 28.1716 31.5 29V42.5H40.5ZM28.5 42.5V10C28.5 8.5434 28.4968 7.60182 28.4036 6.90806C28.316 6.25746 28.1748 6.05354 28.0606 5.93934C27.9464 5.82516 27.7426 5.68394 27.092 5.59646C26.3982 5.5032 25.4566 5.50002 24 5.50002C22.5434 5.50002 21.6018 5.5032 20.908 5.59646C20.2574 5.68394 20.0536 5.82516 19.9393 5.93936C19.8252 6.05354 19.6839 6.25746 19.5965 6.90806C19.5032 7.60182 19.5 8.5434 19.5 10V42.5H28.5ZM16.5 42.5V19C16.5 18.1716 15.8284 17.5 15 17.5H9C8.17158 17.5 7.5 18.1716 7.5 19V42.5H16.5Z" fill="#1535B8"/>
</svg>
