<svg width="42" height="42" viewBox="0 0 42 42" fill="none" xmlns="http://www.w3.org/2000/svg">
<path d="M24.5785 38.3376C24.7376 38.2088 24.8417 38.0243 24.8698 37.8215C24.8979 37.6187 24.8478 37.4128 24.7297 37.2456C24.666 37.1548 24.585 37.0774 24.4913 37.018C24.3976 36.9587 24.293 36.9185 24.1837 36.8997C24.0744 36.881 23.9624 36.8841 23.8543 36.9088C23.7461 36.9336 23.644 36.9795 23.5537 37.044C23.0118 37.4196 22.451 37.7672 21.8737 38.0856V30.24H22.7641C22.8746 30.2518 22.9864 30.2402 23.0921 30.2058C23.1978 30.1715 23.2951 30.1152 23.3775 30.0407C23.46 29.9661 23.5258 29.875 23.5706 29.7733C23.6155 29.6716 23.6383 29.5616 23.6377 29.4504C23.6445 29.34 23.6295 29.2294 23.5934 29.1249C23.5574 29.0204 23.5011 28.924 23.4278 28.8412C23.3544 28.7585 23.2654 28.6911 23.166 28.6428C23.0665 28.5946 22.9585 28.5664 22.8481 28.56H21.8401V21.84H31.9201C31.9201 22.0752 31.9201 22.3104 31.9201 22.5288C31.9109 22.6392 31.9236 22.7503 31.9576 22.8557C31.9915 22.9612 32.0459 23.0589 32.1177 23.1432C32.1896 23.2275 32.2774 23.2968 32.3761 23.347C32.4748 23.3973 32.5824 23.4275 32.6929 23.436C32.8037 23.4475 32.9157 23.4365 33.0221 23.4034C33.1286 23.3704 33.2272 23.3161 33.312 23.2439C33.3968 23.1716 33.4661 23.0829 33.5156 22.9831C33.5651 22.8833 33.5939 22.7744 33.6001 22.6632C33.6001 22.3944 33.6001 22.1088 33.6001 21.84H38.6401C38.6401 22.1256 38.6401 22.428 38.6401 22.7136C38.6285 22.824 38.6389 22.9356 38.6707 23.042C38.7025 23.1484 38.7551 23.2474 38.8254 23.3333C38.8957 23.4192 38.9823 23.4903 39.0803 23.5426C39.1782 23.5948 39.2856 23.6271 39.3961 23.6376C39.6173 23.6523 39.8358 23.5824 40.0074 23.4421C40.1789 23.3017 40.2907 23.1013 40.3201 22.8816C40.3201 22.26 40.4041 21.6384 40.4041 21C40.4073 17.0207 39.1828 13.1374 36.8976 9.87973C34.6124 6.62206 31.3779 4.14872 27.6352 2.79714C23.8925 1.44556 19.824 1.28155 15.9846 2.32749C12.1453 3.37344 8.72214 5.57839 6.18215 8.64155C3.64217 11.7047 2.10906 15.4769 1.79197 19.4435C1.47488 23.4101 2.38926 27.3779 4.41037 30.8057C6.43147 34.2335 9.46087 36.9542 13.0853 38.5968C16.7097 40.2394 20.7526 40.7238 24.6625 39.984C24.8853 39.984 25.0989 39.8955 25.2564 39.738C25.414 39.5804 25.5025 39.3668 25.5025 39.144C25.5025 38.9212 25.414 38.7076 25.2564 38.55C25.0989 38.3925 24.8853 38.304 24.6625 38.304L24.5785 38.3376ZM20.1601 38.1024C17.2371 36.4752 14.7792 34.1271 13.0201 31.2816C15.347 30.6366 17.7458 30.2866 20.1601 30.24V38.1024ZM20.1601 28.56C17.4564 28.6425 14.7745 29.0716 12.1801 29.8368C10.9137 27.353 10.1975 24.6255 10.0801 21.84H20.1601V28.56ZM3.36008 21.84H8.40008C8.52385 24.7573 9.2503 27.6173 10.5337 30.24C9.34329 30.6625 8.18163 31.1619 7.05608 31.7352C4.83071 28.8982 3.53946 25.4412 3.36008 21.84ZM7.14008 10.08C8.27003 10.6438 9.4311 11.143 10.6177 11.5752C9.28121 14.2483 8.52546 17.174 8.40008 20.16H3.36008C3.52773 16.4859 4.85054 12.9584 7.14008 10.08ZM21.8401 3.8976C24.763 5.5248 27.221 7.87287 28.9801 10.7184C26.6525 11.3605 24.2541 11.7104 21.8401 11.76V3.8976ZM20.1601 11.76C17.7609 11.677 15.3805 11.3047 13.0705 10.6512C14.8378 7.85627 17.2746 5.54651 20.1601 3.9312V11.76ZM20.1601 13.44V20.16H10.0801C10.2062 17.3589 10.9399 14.6188 12.2305 12.1296C14.8054 12.9096 17.4711 13.3501 20.1601 13.44ZM21.8401 13.44C24.5359 13.3862 27.2131 12.9796 29.8033 12.2304C31.0667 14.6922 31.7885 17.396 31.9201 20.16H21.8401V13.44ZM38.6401 20.16H33.6001C33.462 17.2389 32.7183 14.3784 31.4161 11.76C32.6188 11.3401 33.7967 10.8521 34.9441 10.2984C37.1639 13.1256 38.4549 16.5702 38.6401 20.16ZM33.8017 8.904C32.7697 9.40234 31.7095 9.83989 30.6265 10.2144C29.1421 7.68421 27.145 5.49248 24.7633 3.78C28.2271 4.52895 31.3802 6.31646 33.8017 8.904ZM17.2369 3.864C14.9067 5.5253 12.9354 7.63944 11.4409 10.08C10.3644 9.70262 9.30994 9.26513 8.28248 8.7696C10.7051 6.25345 13.8225 4.51633 17.2369 3.78V3.864ZM8.21528 33.1128C9.23821 32.6072 10.2933 32.1695 11.3737 31.8024C12.8681 34.3204 14.8638 36.5047 17.2369 38.22C13.7838 37.4655 10.6392 35.6853 8.21528 33.1128Z" fill="url(#paint0_linear_2637_7)"/>
<path d="M32.7592 25.2C31.264 25.2 29.8023 25.6434 28.5591 26.4741C27.3159 27.3048 26.3469 28.4855 25.7747 29.8669C25.2025 31.2483 25.0528 32.7684 25.3445 34.2349C25.6362 35.7014 26.3562 37.0485 27.4135 38.1057C28.4708 39.163 29.8178 39.883 31.2843 40.1747C32.7508 40.4665 34.2709 40.3167 35.6523 39.7445C37.0337 39.1723 38.2144 38.2034 39.0451 36.9601C39.8758 35.7169 40.3192 34.2552 40.3192 32.76C40.3148 30.7563 39.5169 28.836 38.1 27.4192C36.6832 26.0024 34.7629 25.2045 32.7592 25.2ZM32.7592 38.64C31.5963 38.64 30.4594 38.2952 29.4925 37.6491C28.5255 37.0029 27.7719 36.0846 27.3268 35.0102C26.8818 33.9358 26.7653 32.7535 26.9922 31.6129C27.2191 30.4723 27.7791 29.4246 28.6014 28.6022C29.4238 27.7799 30.4715 27.2199 31.6121 26.993C32.7527 26.7661 33.935 26.8826 35.0094 27.3276C36.0838 27.7726 37.0022 28.5263 37.6483 29.4933C38.2944 30.4602 38.6392 31.5971 38.6392 32.76C38.6392 34.3195 38.0197 35.8151 36.917 36.9178C35.8143 38.0205 34.3187 38.64 32.7592 38.64Z" fill="#1535B8"/>
<path d="M36.4915 33.684L33.6019 32.2392V29.4C33.6019 29.1772 33.5134 28.9636 33.3558 28.806C33.1983 28.6485 32.9847 28.56 32.7619 28.56C32.5391 28.56 32.3254 28.6485 32.1679 28.806C32.0104 28.9636 31.9219 29.1772 31.9219 29.4V32.76C31.9235 32.917 31.9682 33.0706 32.0512 33.2039C32.1341 33.3372 32.2521 33.4452 32.3923 33.516L35.7523 35.196C35.8682 35.2497 35.9941 35.2783 36.1219 35.28C36.3123 35.2808 36.4974 35.2168 36.6467 35.0987C36.796 34.9805 36.9007 34.815 36.9437 34.6295C36.9866 34.444 36.9653 34.2494 36.8831 34.0776C36.801 33.9058 36.6629 33.767 36.4915 33.684Z" fill="#1535B8"/>
<defs>
<linearGradient id="paint0_linear_2637_7" x1="40.4041" y1="20.9844" x2="1.73047" y2="20.9844" gradientUnits="userSpaceOnUse">
<stop stop-color="#021D68"/>
<stop offset="1" stop-color="#00AEEF"/>
</linearGradient>
</defs>
</svg>
