<svg width="45" height="45" viewBox="0 0 45 45" fill="none" xmlns="http://www.w3.org/2000/svg">
<g clip-path="url(#clip0_2637_3)">
<path d="M25.2423 30.184L24.5869 29.6514C23.4496 30.6713 22.3296 31.6874 21.1958 32.6878C20.6389 33.1789 20.0744 33.665 19.4806 34.1097C18.71 34.687 18.2246 34.626 17.5412 33.9232C17.2981 33.6733 17.0776 33.4013 16.7754 33.0581C16.6728 33.9747 16.62 34.7924 16.4839 35.5956C16.2185 37.2008 15.5129 38.7009 14.4456 39.9289C13.3381 41.2147 12.506 41.2961 11.2504 40.2019C10.4456 39.5008 9.66579 38.7711 8.87163 38.0573C8.79433 38.014 8.71171 37.9815 8.62582 37.9602C8.00968 38.4679 7.17084 38.7494 7.09467 39.8377C7.04863 40.4962 6.4414 40.8443 5.77199 40.9234C5.41572 40.9669 5.05486 40.8958 4.74161 40.7209C4.42833 40.5456 4.17893 40.2753 4.02943 39.949C3.73192 39.3122 3.74107 38.689 4.21129 38.1331C4.33022 37.993 4.54278 37.8124 4.68755 37.832C5.88393 37.9948 6.33434 37.0078 7.05443 36.3766C6.6118 35.9227 6.17054 35.5071 5.77199 35.0538C5.0509 34.2329 4.33584 33.4054 3.65673 32.5501C3.25335 32.0418 3.45446 31.4932 3.74456 31.0059C4.91042 29.0486 6.65592 27.817 8.79664 27.1638C9.61428 26.9143 10.5005 26.8894 11.4004 26.7557C11.338 26.6054 11.2652 26.4596 11.1824 26.3195C10.3047 24.9951 10.3593 24.6175 11.5516 23.5214C12.9541 22.2322 14.3452 20.9303 15.7487 19.6276C15.5046 19.0606 15.2182 19.1183 14.8422 19.4222C14.3981 19.7984 13.9279 20.1426 13.435 20.4521C12.5624 20.9711 12.0201 20.9082 11.2551 20.2314C10.2641 19.3552 9.27444 18.4766 8.31961 17.5619C5.81948 15.1673 3.33062 12.761 0.853024 10.3433C-0.133878 9.38262 -0.144178 9.14616 0.682225 8.05858C0.928159 7.75892 1.18967 7.47234 1.46569 7.20012C3.46009 5.08213 5.46848 2.97793 7.44578 0.846166C8.35458 -0.133937 8.8044 -0.303765 9.82744 0.553728C11.8576 2.25531 13.7984 4.06394 15.7658 5.83896C17.4462 7.35555 19.1011 8.90035 20.7881 10.4096C21.8537 11.363 21.9274 11.7769 21.1353 12.9465C20.9368 13.2395 20.797 13.5754 20.58 13.8522C20.3322 14.1324 20.0677 14.3975 19.7878 14.6457L20.3719 15.5007C20.846 15.1173 21.2937 14.7677 21.728 14.4022C23.2355 13.1332 24.7447 11.8659 26.2403 10.5831C27.0465 9.89133 27.4759 9.87848 28.6548 10.6441C28.9132 10.4805 29.2025 10.2893 29.4995 10.1105C32.2743 8.44215 35.8583 9.83401 36.5487 12.8763C36.9158 14.4953 36.311 15.8704 35.2485 17.054C34.8556 17.4912 34.643 17.86 34.7718 18.4985C34.9524 19.3923 34.31 19.9811 33.7315 20.5677C32.415 21.9028 31.1194 23.2589 29.7449 24.6795L30.3373 25.4136C30.702 24.9743 31.0901 24.5551 31.5001 24.1578C32.4727 23.3121 33.3315 23.339 34.2309 24.2355C37.3241 27.32 40.4534 30.37 43.4758 33.5235C45.491 35.6258 45.3285 36.0927 43.4053 38.1677C41.092 40.622 38.3937 42.6825 35.4169 44.2676C33.717 45.1898 32.9703 45.0204 31.6988 43.5949C29.0284 40.6027 26.3343 37.6298 23.6517 34.6485C23.4754 34.4582 23.3115 34.2571 23.1608 34.0461C22.5546 33.1703 22.5767 32.9027 23.333 32.1187C23.9371 31.4929 24.5548 30.8798 25.2423 30.184ZM19.0061 32.2688C23.9043 27.9861 28.1125 23.2183 32.5991 18.7132L27.1411 12.4931C22.1151 16.5037 17.2989 20.7216 12.7256 25.4342L19.0061 32.2688ZM12.8908 38.9286C14.1273 37.2715 15.204 34.4789 14.7791 32.667C14.3205 30.7128 13.0178 29.5969 11.4299 29.5509C9.60593 29.4982 7.2233 30.2489 5.98924 31.4902C8.14337 33.9116 10.7446 36.5154 12.8908 38.9286ZM28.5328 29.6016C27.2561 30.7045 26.0201 31.7718 24.7146 32.8997L27.7746 35.6199L31.2088 32.6887L28.5328 29.6016ZM35.7444 28.6829L33.0823 25.5567L29.7958 28.4542L32.7895 31.3588L35.7444 28.6829ZM4.94112 6.03776L1.73286 8.92169L4.90965 11.6582L7.70033 8.66327L4.94112 6.03776ZM9.0471 2.24578L5.98944 5.10993L8.8526 7.49759L11.4299 4.83788L9.0471 2.24578ZM42.577 35.9722L40.4007 33.9282L36.7856 36.5649L39.0323 39.2584L42.577 35.9722ZM36.8702 29.9679L33.6945 32.636L35.9318 35.365C37.0588 34.4167 38.1329 33.5126 39.2739 32.5522L36.8702 29.9679ZM12.3686 13.3654L9.86495 16.0195L12.7602 18.6932L14.8939 16.2245L12.3686 13.3654ZM34.297 36.6851L32.1719 33.882C30.9977 34.8537 29.9349 35.7318 28.8648 36.6173L31.305 39.0183L34.297 36.6851ZM34.4269 42.8125L37.3857 40.6569L35.0824 37.8888C34.0172 38.6358 33.0346 39.3244 32.0511 40.0139L34.4269 42.8125ZM16.2498 9.8338L13.7848 12.2217L16.5805 14.7685L18.7834 12.2036L16.2498 9.8338ZM6.28789 12.8456L8.2133 14.5594L10.9982 12.1514C10.3076 11.4252 9.6483 10.7315 8.98162 10.0303L6.28789 12.8456ZM12.978 6.33739L10.2588 8.86787L12.3836 10.8434L14.9429 8.44955L12.978 6.33739ZM33.1394 15.6804C34.344 14.1199 34.4177 12.9535 33.4455 12.0583C32.4733 11.1631 30.9077 11.1948 29.8233 12.2057L33.1394 15.6804ZM28.5201 26.0581L26.1482 28.2098L26.6986 28.9615L29.1017 26.4334L28.5201 26.0581ZM18.3563 16.1353C16.6919 17.6334 16.6919 17.6334 17.247 18.2418L19.0698 16.6172L18.3563 16.1353Z" fill="#0015A8"/>
</g>
<defs>
<clipPath id="clip0_2637_3">
<rect width="45" height="45" fill="white"/>
</clipPath>
</defs>
</svg>
