<svg width="46" height="46" viewBox="0 0 46 46" fill="none" xmlns="http://www.w3.org/2000/svg">
<g clip-path="url(#clip0_2637_12)">
<path d="M44.989 4.29669H1.01101C0.452723 4.29669 0 4.74932 0 5.3077V33.6154C0 34.1738 0.452723 34.6264 1.01101 34.6264H18.7033V39.6814H11.6804C11.1221 39.6814 10.6694 40.134 10.6694 40.6924C10.6694 41.2508 11.1221 41.7034 11.6804 41.7034H34.3197C34.878 41.7034 35.3307 41.2508 35.3307 40.6924C35.3307 40.134 34.878 39.6814 34.3197 39.6814H27.2968V34.6264H30.6803V36.244C30.6803 36.8023 31.133 37.255 31.6913 37.255C32.2496 37.255 32.7023 36.8023 32.7023 36.244V34.6264H34.7243V36.244C34.7243 36.8023 35.177 37.255 35.7353 37.255C36.2936 37.255 36.7463 36.8023 36.7463 36.244V34.6264H38.7682V36.244C38.7682 36.8023 39.2209 37.255 39.7792 37.255C40.3375 37.255 40.7902 36.8023 40.7902 36.244V34.6264H44.9892C45.5475 34.6264 46.0002 34.1738 46.0002 33.6154V5.3077C46 4.74932 45.5473 4.29669 44.989 4.29669ZM25.2748 39.6813H20.7253V34.6263H25.2748V39.6813ZM43.9781 32.6044H2.02193V6.31872H43.978V32.6044H43.9781Z" fill="#1535B8"/>
<path d="M5.05398 30.5824H40.9441C41.5024 30.5824 41.9551 30.1298 41.9551 29.5714V9.35165C41.9551 8.79327 41.5024 8.34064 40.9441 8.34064H5.05398C4.49569 8.34064 4.04297 8.79327 4.04297 9.35165V29.5714C4.04297 30.1298 4.49569 30.5824 5.05398 30.5824ZM6.06499 10.3627H39.9331V28.5604H6.06499V10.3627Z" fill="#1535B8"/>
<path d="M9.75711 15.3867H10.4143C10.9726 15.3867 11.4253 14.9341 11.4253 14.3757C11.4253 13.8173 10.9726 13.3647 10.4143 13.3647H9.75711C9.19882 13.3647 8.74609 13.8173 8.74609 14.3757C8.74609 14.9341 9.19882 15.3867 9.75711 15.3867Z" fill="#1535B8"/>
<path d="M21.9337 13.3648H13.593C13.0348 13.3648 12.582 13.8174 12.582 14.3758C12.582 14.9342 13.0348 15.3868 13.593 15.3868H21.9337C22.492 15.3868 22.9447 14.9342 22.9447 14.3758C22.9447 13.8174 22.492 13.3648 21.9337 13.3648Z" fill="#1535B8"/>
<path d="M24.797 19.5182H24.1399C23.5816 19.5182 23.1289 19.9708 23.1289 20.5292C23.1289 21.0876 23.5816 21.5402 24.1399 21.5402H24.797C25.3553 21.5402 25.808 21.0876 25.808 20.5292C25.808 19.9708 25.3553 19.5182 24.797 19.5182Z" fill="#1535B8"/>
<path d="M36.3165 19.5182H27.9759C27.4176 19.5182 26.9648 19.9708 26.9648 20.5292C26.9648 21.0876 27.4176 21.5402 27.9759 21.5402H36.3165C36.8748 21.5402 37.3275 21.0876 37.3275 20.5292C37.3275 19.9708 36.8749 19.5182 36.3165 19.5182Z" fill="#1535B8"/>
<path d="M17.3615 17.4088H9.75711C9.19882 17.4088 8.74609 17.8614 8.74609 18.4198C8.74609 18.9781 9.19882 19.4308 9.75711 19.4308H17.3615C17.9198 19.4308 18.3725 18.9781 18.3725 18.4198C18.3725 17.8614 17.9198 17.4088 17.3615 17.4088Z" fill="#1535B8"/>
<path d="M36.3184 23.5622H28.7141C28.1558 23.5622 27.7031 24.0148 27.7031 24.5732C27.7031 25.1316 28.1558 25.5842 28.7141 25.5842H36.3184C36.8767 25.5842 37.3294 25.1316 37.3294 24.5732C37.3294 24.0148 36.8768 23.5622 36.3184 23.5622Z" fill="#1535B8"/>
</g>
<defs>
<clipPath id="clip0_2637_12">
<rect width="46" height="46" fill="white"/>
</clipPath>
</defs>
</svg>
